# xmcd
#
# Track frame offsets:
#	150
#	10602
#	27954
#	43002
#	56844
#	72994
#	84778
#	97842
#	111850
#	125098
#	139315
#	148315
#	163781
#
# Disc length: 2352 seconds
# Revision: 0
# Processed by: cddbd v1.5.2PL0 Copyright (c) Steve Scherf et al.
# Submitted via: dBpowerAMP V12.0
#
DISCID=b4092e0d
DTITLE=The Foggy Hogtown Boys - Pigtown Fling
DYEAR=2007
DGENRE=Country
TTITLE0=Prize Pig
TTITLE1=Gladstone Hornpipe
TTITLE2=Paul David
TTITLE3=Pumpkin Patch
TTITLE4=The Stomp of Approval
TTITLE5=The Big Sister Waltz
TTITLE6=Ace
TTITLE7=No. 89
TTITLE8=Burlin Reunion
TTITLE9=Man in a Can
TTITLE10=Bear County Breakdown
TTITLE11=Kayla's Dream
TTITLE12=In the Pale Moonlight
EXTD=
EXTT0=
EXTT1=
EXTT2=
EXTT3=
EXTT4=
EXTT5=
EXTT6=
EXTT7=
EXTT8=
EXTT9=
EXTT10=
EXTT11=
EXTT12=
PLAYORDER=
